<svg width="50" height="50" viewBox="0 0 50 50" fill="none" xmlns="http://www.w3.org/2000/svg">
<g clip-path="url(#clip0_184_325)">
<path d="M26.3542 20.8333C24.6459 15.9792 20.0209 12.5 14.5834 12.5C7.68754 12.5 2.08337 18.1042 2.08337 25C2.08337 31.8958 7.68754 37.5 14.5834 37.5C20.0209 37.5 24.6459 34.0208 26.3542 29.1667H35.4167V37.5H43.75V29.1667H47.9167V20.8333H26.3542ZM14.5834 29.1667C12.2917 29.1667 10.4167 27.2917 10.4167 25C10.4167 22.7083 12.2917 20.8333 14.5834 20.8333C16.875 20.8333 18.75 22.7083 18.75 25C18.75 27.2917 16.875 29.1667 14.5834 29.1667Z" fill="white"/>
</g>
<defs>
<clipPath id="clip0_184_325">
<rect width="50" height="50" fill="white"/>
</clipPath>
</defs>
</svg>
