<svg width="70" height="70" viewBox="0 0 70 70" fill="none" xmlns="http://www.w3.org/2000/svg">
<circle cx="35" cy="35" r="35" transform="matrix(-1 0 0 1 70 0)" fill="#3B0C0C"/>
<path d="M23 36.5C22.1716 36.5 21.5 35.8284 21.5 35C21.5 34.1716 22.1716 33.5 23 33.5V36.5ZM47.0607 33.9393C47.6464 34.5251 47.6464 35.4749 47.0607 36.0607L37.5147 45.6066C36.9289 46.1924 35.9792 46.1924 35.3934 45.6066C34.8076 45.0208 34.8076 44.0711 35.3934 43.4853L43.8787 35L35.3934 26.5147C34.8076 25.9289 34.8076 24.9792 35.3934 24.3934C35.9792 23.8076 36.9289 23.8076 37.5147 24.3934L47.0607 33.9393ZM23 33.5H46V36.5H23V33.5Z" fill="#FFEDCA"/>
</svg>
